<?xml version="1.0" encoding="utf-8"?>
<!-- Generator: Adobe Illustrator 15.0.0, SVG Export Plug-In . SVG Version: 6.00 Build 0)  -->
<!DOCTYPE svg PUBLIC "-//W3C//DTD SVG 1.1//EN" "http://www.w3.org/Graphics/SVG/1.1/DTD/svg11.dtd">
<svg version="1.1" id="Capa_1" xmlns="http://www.w3.org/2000/svg" xmlns:xlink="http://www.w3.org/1999/xlink" x="0px" y="0px"
	 width="300px" height="108.853px" viewBox="0 0 300 108.853" enable-background="new 0 0 300 108.853" xml:space="preserve">
<path fill="#030104" stroke="#030104" stroke-width="1.8315" stroke-miterlimit="10" d="M164.228,9.882h21.063v20.146
	c0,0,7.021-6.104,14.652-5.188c7.632,0.916,12.517,4.885,13.433,16.484c0.915,11.599,0.941,32.468,0.305,44.587
	c-0.608,11.599-6.867,12.972-13.124,13.429c-6.119,0.45-14.728-5.265-15.57-6.732c-0.009-0.016,0,4.884,0,4.884h-21.062
	L164.228,9.882z M186.512,41.933c0,10.989-0.15,34.892-0.15,42.126c0,3.513,5.342,3.052,5.342,0.458c0-10.685,0-42.432,0-42.432
	C191.703,35.829,186.512,38.117,186.512,41.933z"/>
<path fill="#999999" d="M27.094,53.074H7.92c0,0-0.057-11.275,0.171-14.938c0.265-4.229,5.307-10.322,11.293-12.034
	c6.41-1.832,17.101-1.49,22.438-0.176c4.615,1.136,13.43,6.357,13.43,13.183c0,7.046,0,60.154,0,60.154H36.021v-7.224
	c0,0-2.605,6.066-6.41,6.716c-2.976,0.508-13.965,1.08-18.011-0.612c-6.176-2.583-6.065-20.63-3.623-27.956
	c1.063-3.188,5.494-7.897,11.103-10.048c7.674-2.941,14.224-7.179,14.224-7.179s0.087-10.195-0.029-13.736
	c-0.064-1.989-6.181-1.681-6.181-0.229C27.094,42.657,27.094,53.074,27.094,53.074z M27.399,72.591
	c0,2.558,0.077,10.265,0.077,12.402c0,2.729,6.639,1.699,6.639,1.067c0-0.952,0.039-20.756,0.039-20.756
	S27.399,69.923,27.399,72.591z"/>
<path fill="#030104" d="M128.286,52.616h-19.174c0,0-0.057-11.276,0.172-14.939c0.264-4.228,5.307-10.321,11.293-12.033
	c6.411-1.832,17.101-1.49,22.438-0.175c4.615,1.135,13.431,6.356,13.431,13.181c0,7.047,0,60.154,0,60.154h-19.232v-7.224
	c0,0-2.605,6.066-6.41,6.716c-2.976,0.508-13.964,1.08-18.01-0.611c-6.176-2.583-6.064-20.63-3.624-27.955
	c1.063-3.19,5.495-7.899,11.103-10.049c7.674-2.943,14.224-7.18,14.224-7.18s0.086-10.195-0.029-13.736
	c-0.064-1.989-6.181-1.681-6.181-0.229C128.286,42.199,128.286,52.616,128.286,52.616z M128.591,72.133
	c0,2.558,0.076,10.264,0.076,12.402c0,2.729,6.639,1.699,6.639,1.067c0-0.953,0.039-20.756,0.039-20.756
	S128.591,69.464,128.591,72.133z"/>
<polygon fill="#030104" points="65.021,10.842 87.609,10.842 87.609,81.965 101.651,81.965 101.651,99.975 64.715,99.975 "/>
<path fill="#030104" d="M266.641,47.98h-18.544c0,0-0.143-5.729,0-7.555c0.264-3.376-5.378-3.509-6.639-2.29
	c-2.271,2.192-1.717,9.959,0.915,12.592c3.279,3.276,23.81,8.928,25.871,19.459c1.178,6.03,1.082,14.052-0.688,18.774
	c-1.361,3.634-5.952,8.699-13.508,10.302c-7.555,1.603-12.318,1.016-16.255,0c-4.511-1.164-13.254-4.436-14.881-11.218
	c-1.374-5.724-0.229-15.109-0.229-15.109l17.858-0.23c0,0-0.281,9.966,0.229,11.905c1.145,4.351,6.867,3.893,7.097-0.688
	c0.574-11.481-3.434-11.904-7.784-15.339c-3.996-3.156-8.929-5.266-14.194-10.76c-9.759-10.184-4.12-25.641,2.748-30.22
	c6.869-4.58,19.129-4.631,28.388-0.687C269.388,32.183,266.641,47.98,266.641,47.98z"/>
<path fill="#030104" d="M296.008,18.797c0,0-7.938,0.107-9.703-0.219l-0.094,0.11c1.626,1.035,7.799,6.878,7.799,6.878l-7.38,5.025
	c-0.928,0.543-3.434-7.81-3.946-9.829h-0.094c-0.461,2.075-3.988,9.829-3.988,9.829l-7.43-5.08c-0.415-0.383,6.22-5.731,7.844-6.823
	l-0.14-0.11c-1.668,0.326-9.606,0.219-9.606,0.219l1.253-8.682c0.048-0.381,8.03,3.929,9.794,5.078l0.142-0.165
	c-0.698-1.747-2.881-9.881-2.881-9.881h10.119c0.651,0-1.994,8.081-2.734,9.939l0.091,0.107c1.577-0.984,9.562-5.568,9.701-5.078
	L296.008,18.797z"/>
</svg>
